<?xml version="1.0" encoding="utf-8"?>
<!-- Svg Vector Icons : http://www.onlinewebfonts.com/icon -->
<!DOCTYPE svg PUBLIC "-//W3C//DTD SVG 1.1//EN" "http://www.w3.org/Graphics/SVG/1.1/DTD/svg11.dtd">
<svg version="1.1" xmlns="http://www.w3.org/2000/svg" xmlns:xlink="http://www.w3.org/1999/xlink" x="0px" y="0px" viewBox="0 0 256 256" enable-background="new 0 0 256 256" xml:space="preserve">
<metadata> Svg Vector Icons : http://www.onlinewebfonts.com/icon </metadata>
<g><g><g><path fill="#000000" d="M41.1,54.8c-4.2,1-8,4.1-10,8c-1.1,2.2-1.2,2.8-1.3,11.6l-0.1,9.4H22c-5.6,0-8,0.2-9.2,0.7c-3.2,1.3-3.6,5.8-0.8,8.1c1.2,0.9,1.8,0.9,36.9,0.9c39.2,0,37.6-0.1,39.1,2.8c0.9,1.7,0.9,2.9,0,4.6c-1.5,2.8-0.7,2.8-30.9,2.8H29.7v4.8v4.8h-7.6c-5.7,0-8.1,0.2-9.3,0.7c-3.2,1.3-3.6,5.8-0.8,8.1c1.2,0.9,1.8,0.9,27.5,0.9h26.3l1.6,1.6c2.1,2.1,2.2,4.7,0.2,6.8l-1.3,1.5L47.9,133l-18.3,0.1v4.8v4.8h-7.6c-9,0-10.5,0.4-11.6,3c-0.9,2.1-0.6,3.6,1.2,5.3l1.3,1.3h16.2c17.9,0,18.2,0,19.6,3c0.9,1.9,0.9,2.3,0,4.2c-1.3,2.7-2.4,3-11.3,3h-7.9l0.2,4.3c0.2,5.1,1.6,8.4,4.6,11.2c3,2.7,5.5,3.6,10.5,3.8l4.4,0.2v-5.2c0-6.2,0.8-9.6,3.5-15c5.8-11.7,17.7-19.1,30.9-19.1c5.5,0,9.9,1,15,3.5c7.3,3.6,12.7,8.9,16.1,16.1c2.4,5,3.2,8.5,3.2,14.4v5.2h19.8h19.8l-0.1-4.2c-0.2-5,0.4-8.6,2.3-13.2c4.2-10.6,13.3-18.5,24.5-21.1c4.2-1,11.4-0.9,15.9,0.2c6.4,1.6,10.9,4.2,15.9,9.2c3.8,3.8,4.8,5,6.6,8.8c2.7,5.5,3.7,9.6,3.7,15.4c0,5.1-0.4,4.8,4.4,3c5.4-2,11.4-8.1,13.4-13.5c1.7-4.5,2-8.2,1.8-24.1c-0.1-17.2-0.2-17.3-4.1-21.6c-2.4-2.6-3-3-9.6-5.3c-2.8-1-6.7-2.7-8.6-3.8c-3.7-2.1-4.5-2.9-41.2-38.2c-17.7-17-19-18-24.7-19C154.2,54.2,43.5,54.2,41.1,54.8z M155.4,65c2.2,1.7,43.2,38.2,44.8,39.9c1.7,1.8,1.9,3.9,0.8,6.1c-1.2,2.4-1.6,2.4-25.2,2.3l-21.9-0.1l-1.9-1.2c-1-0.7-2.5-2.3-3.2-3.5l-1.3-2.2l-0.1-18.8c-0.1-16.8,0-19,0.6-20.4C149.4,64,153,63.1,155.4,65z M164.8,123.7c2.5,1.2,3.4,5.1,1.8,7.2c-1.6,2-2.6,2.3-9,2.3c-7.1,0-8.3-0.4-9.6-3c-0.7-1.4-0.7-2-0.3-3.5c0.9-3,2.4-3.6,9.6-3.6C161.8,123,163.9,123.2,164.8,123.7z"/><path fill="#000000" d="M76.3,154c-10.4,3.6-17.1,12.7-17.1,23.3c0,8.1,4.4,16.1,11.3,20.5c7.8,5.1,18.5,5.1,26.3,0c15.3-9.9,14.8-32.5-0.9-41.7C90.2,152.8,82.3,152,76.3,154z M87.1,173.9c1.8,1.8,2.1,3.9,0.8,5.8c-1.8,2.5-3.9,3.2-6.4,2c-3.3-1.6-4-5.3-1.4-7.8c1.3-1.3,1.9-1.6,3.5-1.6S85.9,172.6,87.1,173.9z"/><path fill="#000000" d="M184.3,154.2c-10.2,3.5-16.7,12.4-16.7,22.9c0,7,2,11.9,6.7,16.9c7.5,8,18.3,9.9,28.2,5.1c10.8-5.3,16.2-17.5,12.7-28.8c-2.5-8.1-9.7-15-17.7-16.8C193.7,152.6,188,152.9,184.3,154.2z M195,173.3c0.6,0.5,1.4,1.7,1.7,2.5c0.7,2.2-0.5,4.8-2.9,5.9c-1.5,0.7-2,0.8-3.4,0.3c-3-1-4.4-4.5-2.8-7.3C189,172.4,192.8,171.6,195,173.3z"/></g></g></g>
</svg>