<?xml version="1.0" encoding="utf-8"?>
<!-- Generator: Adobe Illustrator 21.0.2, SVG Export Plug-In . SVG Version: 6.00 Build 0)  -->
<svg version="1.1" id="Capa_1" xmlns="http://www.w3.org/2000/svg" xmlns:xlink="http://www.w3.org/1999/xlink" x="0px" y="0px"
	 viewBox="0 0 100 104.1" style="enable-background:new 0 0 100 104.1;" xml:space="preserve">
<style type="text/css">
	.st0{fill:#E52027;}
</style>
<path class="st0" d="M89.7,31.7c3.4-3.2,5.5-7.7,5.5-12.7c0-9.6-7.8-17.4-17.4-17.4S60.4,9.4,60.4,19c0,5,2.1,9.5,5.5,12.7
	c-4.8,0.5-8.5,4.6-8.5,9.5v1.1c-1.9-0.7-3.9-1.1-6-1.1c-3.5,0-6.7,1-9.5,2.8c-1.4-2.8-4.2-4.8-7.5-5.2c3.4-3.2,5.5-7.7,5.5-12.7
	c0-9.6-7.8-17.4-17.4-17.4S5.1,16.6,5.1,26.2c0,5,2.1,9.5,5.5,12.7c-4.8,0.5-8.5,4.6-8.5,9.5v39.7c0,1.3,1.1,2.4,2.4,2.4
	s2.4-1.1,2.4-2.4V48.5c0-2.7,2.2-4.8,4.8-4.8h21.6c2.3,0,4.2,1.6,4.7,3.8c-2.6,3-4.1,6.9-4.1,11.2c0,5,2.1,9.5,5.5,12.7
	c-4.8,0.5-8.5,4.6-8.5,9.5v15.6c0,1.3,1.1,2.4,2.4,2.4s2.4-1.1,2.4-2.4V80.9c0-2.7,2.2-4.8,4.8-4.8h21.6c2.7,0,4.8,2.2,4.8,4.8v15.6
	c0,1.3,1.1,2.4,2.4,2.4s2.4-1.1,2.4-2.4V80.9c0-4.9-3.7-9-8.5-9.5c3.4-3.2,5.5-7.7,5.5-12.7c0-5.5-2.6-10.5-6.6-13.6
	c0-0.1,0-0.1,0-0.2v-3.6c0-2.7,2.2-4.8,4.8-4.8h21.6c2.7,0,4.8,2.2,4.8,4.8V81c0,1.3,1.1,2.4,2.4,2.4s2.4-1.1,2.4-2.4V41.3
	C98.2,36.3,94.5,32.3,89.7,31.7z M9.9,26.2c0-7,5.7-12.6,12.6-12.6s12.6,5.7,12.6,12.6s-5.7,12.6-12.6,12.6S9.9,33.2,9.9,26.2z
	 M64,58.7c0,7-5.7,12.6-12.6,12.6s-12.6-5.7-12.6-12.6c0-3.1,1.1-5.9,3-8.1c0.4-0.2,0.7-0.6,1-1c2.3-2.2,5.3-3.5,8.7-3.5
	C58.3,46.1,64,51.7,64,58.7z M65.2,19c0-7,5.7-12.6,12.6-12.6S90.4,12.1,90.4,19s-5.7,12.6-12.6,12.6S65.2,26,65.2,19z"/>
</svg>
