<?xml version="1.0" encoding="utf-8"?>
<!-- Generator: Adobe Illustrator 21.0.2, SVG Export Plug-In . SVG Version: 6.00 Build 0)  -->
<svg version="1.1" id="Capa_1" xmlns="http://www.w3.org/2000/svg" xmlns:xlink="http://www.w3.org/1999/xlink" x="0px" y="0px"
	 viewBox="0 0 90 75.3" style="enable-background:new 0 0 90 75.3;" xml:space="preserve">
<style type="text/css">
	.st0{fill:#E52027;}
</style>
<path class="st0" d="M62.3,64.3c0.1-1.5-0.3-2.9-0.2-4.4c0.1-1.3,0.8-2.5,2.6-2.4c0.9,0.1,1.9,1,2,1.8c0.2,1,0.2,2.1,0.2,3.1
	c-0.1,1.1,0.1,3-0.1,4.2c0.8,0,1.7-0.1,2.5-0.1c-0.2-0.5-0.3-1.9-0.2-2.2c0.1-1.3-0.3-2.7-0.2-4c0.1-1.2,0.7-2.3,2.1-2.2
	c0.7,0,1.5,0.9,1.7,1.6c0.2,0.9,0.2,1.9,0.1,2.8c-0.1,1,0,2.7-0.1,3.8c0.7,0,1.3-0.1,2-0.1c-0.1-0.6-0.1-1.4-0.1-1.7
	c0.1-1.3-0.2-2.6-0.1-3.9c0.1-1.2,0.5-2.2,1.5-2.2c0.5,0,1.1,0.8,1.2,1.6c0.1,0.9,0.1,1.8,0.1,2.8c0,0.8,0,2.2,0,3.2
	c0.5,0,1.1-0.1,1.6-0.1c-0.1-0.5-0.1-1.6-0.1-1.9c0-1.1-0.1-2.3-0.1-3.4c0-1,0.4-2,1.2-1.9c0.4,0,0.9,0.7,1,1.4
	c0.1,0.8,0.1,1.6,0.1,2.4c0,0.8,0,2.2,0,3.2c0.4,0,0.8-0.1,1.1-0.1C82,65.1,82,64.2,82,63.9c0-1.1-0.1-2.1-0.1-3.2
	c0-1,0.3-1.8,0.8-1.8c0.3,0,0.6,0.7,0.6,1.3c0.1,0.7,0.1,1.5,0.1,2.2s0,2.1,0,2.9c0.4,0,0.7-0.1,1-0.1c0-0.5,0-1.2,0-1.4
	c0-1-0.1-2,0-2.9c0-0.9,0.2-1.7,0.6-1.6c0.2,0,0.4,0.6,0.5,1.2c0.1,0.7,0.1,1.4,0,2.1c0,0.7,0,1.8,0,2.6c0.3,0,0.6-0.1,0.9-0.1
	c0-0.4,0-1,0-1.2c0-0.9-0.1-1.8,0-2.8c0-0.8,0.2-1.6,0.5-1.5c0.2,0,0.4,0.6,0.4,1.1c0,0.6,0,1.3,0,1.9c0,0.6,0,1.6,0,2.4
	c0.4,0,0.6-0.1,0.6-0.1l-0.5-23.3c-8-9.1-33.3-8.4-41.3-7.9c0,0,0.7,5.4,1.2,7.1c0.3,1.2,1.7,4.8,1.7,4.8l4.2,0.3
	c1.2,0.1,2.1,1,2.2,2.2l0.9,7.9l4.9,9.5c0.2,0.3,0.3,0.7,0.3,1.1c0.4,0,0.8,0,1.2,0C62.3,66.1,62.3,64.7,62.3,64.3z M86.1,49.1
	c0.2,0,0.4,0.5,0.4,1c0,0.6,0,1.1,0,1.7c0,0.6,0,2,0,2.6c0,0.1-0.8-0.1-0.8-0.1c-0.1,0-0.1-1.2-0.1-1.5c0-0.8-0.1-1.6,0-2.4
	C85.6,49.7,85.7,49,86.1,49.1z M84.2,48.4c0.2,0,0.4,0.6,0.5,1.2c0.1,0.7,0.1,1.3,0,2c0,0.7,0,2.3,0,3l-0.9-0.1
	c-0.1,0-0.1-1.4-0.1-1.7c0-0.9-0.1-1.9,0-2.8C83.7,49.1,83.8,48.3,84.2,48.4z M82,47.8c0.3,0,0.6,0.6,0.6,1.2
	c0.1,0.7,0.1,1.4,0.1,2.1c0,0.8,0,2.4,0,3.1c0,0.1-1.2,0-1.2,0c-0.2,0-0.2-1.5-0.2-1.8c0-1-0.1-2-0.1-2.9
	C81.3,48.5,81.5,47.7,82,47.8z M78.1,48.9c0-1,0.4-1.9,1.2-1.8c0.4,0,0.9,0.7,1,1.3c0.1,0.8,0.1,1.5,0.1,2.3s0.1,2.4-0.1,3.3
	c-0.1,0.4-1.8,0.1-1.8,0.1c-0.2,0-0.3-1.6-0.3-2C78.2,51,78,50,78.1,48.9z M73.9,48.3c0.1-1,0.5-2,1.5-1.9c0.5,0,1.1,0.7,1.2,1.4
	c0.1,0.8,0.1,1.6,0.1,2.4c0,0.9,0,2.8-0.1,3.6h-2.3c-0.3,0-0.3-1.7-0.3-2.1C74,50.6,73.8,49.5,73.9,48.3z M69,48
	c0.1-1,0.5-2,1.5-1.9c0.5,0,1.1,0.7,1.2,1.4c0.1,0.8,0.1,1.6,0.1,2.4c0,0.9,0,2.8-0.1,3.6h-2.3c-0.3,0-0.3-1.7-0.3-2.1
	C69.2,50.3,68.9,49.1,69,48z M64.2,47.3c0.1-1.2,0.5-2.2,1.5-2.2c0.5,0,1.1,0.9,1.2,1.6c0.1,0.9,0.1,1.8,0.1,2.8
	c-0.1,1,0.1,2.7-0.1,3.8h-2.5c-0.3,0-0.2-1.6-0.2-2.1C64.4,49.9,64.1,48.6,64.2,47.3z M62,49.3c-0.1,1,0.1,2.8-0.1,3.9
	c0,0.2-3.3,0.1-3.3,0.1c-0.4,0-0.4-1.7-0.4-2.2c0.1-1.3-0.3-2.7-0.2-4c0.1-1.2,0.7-2.3,2.1-2.2c0.7,0.1,1.5,0.9,1.7,1.6
	C62,47.4,62,48.4,62,49.3z"/>
<path class="st0" d="M2.1,60.6c0.1-1,0.9-1.8,1.4-1.3c0.4,0.5,0.6,1.5,0.5,2.4c-0.1,0.8,0,3.5-0.1,4.3c0.4,0,0.9,0,1.3,0
	C5,64.6,5,61.9,5.1,60.5c0.1-1.1,1.2-2,1.7-1.4c0.5,0.5,0.7,1.6,0.6,2.6c-0.1,0.9,0,3.6-0.1,4.5c0.4,0,0.9,0,1.3,0
	c-0.2-1.6-0.2-4.6-0.1-6.1c0.1-1.2,1.5-2.1,2.2-1.5c0.6,0.5,0.9,1.7,0.8,2.8c-0.1,1,0,4.2-0.2,4.9c0.7,0,1.5,0,2.2,0.1
	c-0.2-1-0.1-4.2-0.2-5.2c-0.1-1.1,0.3-2.4,1-3c0.9-0.7,2.6,0.3,2.7,1.6c0.2,1.7,0.1,5-0.1,6.8c1.1,0,2.1,0.1,3.1,0.1
	c-0.2-1.1-0.1-4.6-0.3-5.8c-0.1-1.2,0.3-2.7,1.1-3.3c0.9-0.7,2.8,0.4,3,1.8c0.2,1.9,0.1,5.4-0.1,7.4c1.2,0,2.3,0,3.5,0.1
	c-0.3-1-0.2-5-0.4-6.2c-0.2-1.3,0.3-2.8,1.3-3.5c1.2-0.8,3.5,0.4,3.7,1.9c0.2,2,0.1,5.9-0.2,7.9l0,0c1.5,0,2.9,0,4.2,0.1
	c-0.1-2-0.3-6.8-0.1-8.7c0.1-0.8,0.7-1.5,1.8-1.6c1.4-0.2,3.4,0.9,3.2,2.7c0,0.6,0,1.2,0,1.8s0,1.2,0,1.9c0,1-0.1,3.1-0.2,3.9
	c1.6,0,3,0,4.4,0c-0.4-0.8-0.3-5.3-0.5-6.7s0.4-3,1.5-3.7c1.3-0.8,4,0.4,4.2,2c0.2,2.1,0.2,6.2-0.2,8.3l0,0c5.8,0,9.1-0.1,9.1-0.1
	L53.9,57L53,49.3c0,0-0.1-0.4-0.2-0.7c-0.1-0.2-0.6-0.2-0.6-0.2l-5-0.4c0,0-1.9-4.8-2.3-6.4c-0.5-2-1.3-8-1.3-8s-0.1-0.6-0.3-0.7
	c-0.1-0.1-0.7-0.1-0.7-0.1L39,32.9h-0.8L38,32.4c0,0-2-4.7-2.4-6.4c-0.4-1.7-0.5-6.9-0.5-6.9s0-0.4-0.1-0.5s-0.3-0.1-0.3-0.1
	l-1.2-0.1l-0.3-0.1c-0.1-0.1-0.3-0.3-0.3-0.3L27.3,7c0,0-0.2-0.3-0.4-0.3c-0.2-0.1-0.4-0.1-0.6,0C4,13.3,2.7,24.6,2.7,24.6L1.2,65.9
	c0.7,0,0.4,0.1,1,0.1C2.1,64.6,2.1,62,2.1,60.6z M35.5,42.4c0.2-0.8,1.3-1.6,2.2-1.7c1.9-0.1,2.8,0.9,2.9,2.1c0.2,1.3-0.3,2.6-0.1,4
	c0,0.5,0,2.4-0.5,2.4c-0.6,0.1-4.4-0.1-4.4-0.1c-0.3-1-0.1-3-0.2-4C35.3,44.2,35.3,43.3,35.5,42.4z M27.7,28.6
	c0.1-1.1,0.8-2.1,2.4-2c0.8,0,1.7,0.8,1.9,1.5c0.2,0.8,0.2,1.7,0.2,2.6c-0.1,0.9,0.1,2.7-0.1,3.7c0,0-3.5,0.6-4,0.3
	C27.7,34.4,27.6,29.8,27.7,28.6z M28.1,41.6c1.2-0.6,3.5,0.3,3.7,1.5c0.2,1.6,0.1,4.7-0.2,6.3c0,0.2-3.9,0.7-4.4,0.3
	c-0.4-0.4-0.3-4.2-0.4-5.3C26.6,43.4,27.1,42.2,28.1,41.6z M23.6,50.2c0,0.2-3.2,0.7-3.6,0.3s-0.2-4.1-0.4-5.1
	c-0.1-1,0.3-2.2,1.1-2.7c1-0.6,2.9,0.3,3,1.4C23.9,45.7,23.9,48.6,23.6,50.2z M24.4,9.1c0.7-0.2,1.4,0.2,1.4,0.6
	c-0.1,1-1,1.1-2.1,1.2c-0.3-0.1-1.3,0.7-1.2-0.3C22.4,9.7,23.5,9.3,24.4,9.1z M22.8,28.4c0.7,0,1.4,0.8,1.6,1.4
	c0.2,0.8,0.2,1.7,0.1,2.5c-0.1,0.9,0.1,2.4-0.1,3.4c0,0-2.9,0.8-3.2,0.5c-0.3-0.3-0.4-4.7-0.3-5.9C20.9,29.3,21.5,28.3,22.8,28.4z
	 M20,10.9c0.4,0,1.2-0.1,1.1,0.6c0,0.7-0.8,0.7-1.4,0.8c-0.3,0-0.8,0.3-0.8-0.4C18.9,11.1,19.5,10.9,20,10.9z M16.3,12.6
	c0.5-0.1,1.2-0.2,1.2,0.4c0.1,0.8-0.7,1.1-1.3,1.2c-0.4,0.1-1.2,0.1-1.1-0.5C15.2,13.1,15.6,12.6,16.3,12.6z M15.1,32.1
	c0.1-1,0.5-1.9,1.6-1.8c0.5,0,1.2,0.7,1.3,1.3c0.1,0.8,0.1,1.5,0.1,2.3c0,0.9,0.1,2.3-0.1,3.1c0,0-2.4,0.8-2.7,0.5
	C15.1,37.3,15.1,33.2,15.1,32.1z M15.5,43.8c0.9,0,1.6,0.4,1.7,1.5c0.1,1.4,0.1,4.1-0.1,5.6c0,0.2-2.7,0.6-3,0.3s-0.2-3.7-0.3-4.7
	C13.6,45.5,14.2,43.8,15.5,43.8z M12.8,14.7c0.5,0,1.2-0.1,1.2,0.5c0,0.7-0.5,1.2-1.3,1.2c-0.6,0.1-1.2,0.1-1.2-0.6
	C11.5,15.3,12,14.8,12.8,14.7z M11.6,32.4c0.4,0,0.9,0.6,1,1.2c0.1,0.7,0.1,1.4,0.1,2c0,0.8,0,2-0.1,2.7c0,0-1.9,0.9-2.1,0.6
	c-0.2-0.2-0.3-4.1-0.2-5C10.4,33.1,10.7,32.3,11.6,32.4z M9.6,17.1c0.4,0,1,0,1.2,0.7c-0.1,0.6-0.5,0.7-1,0.8
	c-0.5,0.1-0.8,0.1-0.9-0.5C8.7,17.4,9.1,17.1,9.6,17.1z M9.6,45c0.7-0.5,2.1,0.3,2.2,1.3c0.1,1.4,0.1,4.1-0.1,5.5
	c0,0.2-2.4,0.4-2.6,0.1c-0.3-0.3-0.2-3.5-0.3-4.4C8.6,46.5,8.9,45.5,9.6,45z M8.4,35.2c0.1,0.7,0.1,1.3,0.1,2s0,2.1-0.1,2.8
	c0,0-1.7,0.9-1.9,0.6c-0.2-0.2-0.2-4.1-0.2-5.1c0-0.8,0.4-1.6,1.1-1.5C7.9,34.1,8.3,34.7,8.4,35.2z M6.7,19.7
	c0.5-0.1,1.1,0.1,1.1,0.5C7.9,20.6,7.4,21,6.9,21c-0.5,0.1-1,0.2-1.1-0.3C5.7,20.2,6.1,19.9,6.7,19.7z M6.1,46
	c0.5-0.5,1.5,0.2,1.6,1.2c0.1,1.3,0.1,3.8-0.1,5.1c0,0.2-1.7,0.4-1.9,0.1c-0.2-0.3-0.1-3.2-0.2-4.1C5.5,47.4,5.7,46.5,6.1,46z
	 M5.4,39c0,0.6,0,1.8,0,2.4c0,0-1.3,1-1.4,0.8c-0.1-0.2-0.2-3.7-0.1-4.5c0-0.7,0.3-1.4,0.9-1.3c0.3,0,0.6,0.5,0.7,1
	C5.4,37.8,5.4,38.4,5.4,39z M4,22.7c0.5-0.1,1.1-0.1,1.2,0.5c0.1,0.5-0.3,0.7-0.8,0.8c-0.6,0.1-1-0.1-1.1-0.7
	C3.1,22.8,3.6,22.8,4,22.7z M3.5,47c0.3-0.5,0.9,0.2,1,1.1c0.1,1.2,0,3.6,0,4.8c0,0.2-1,0.4-1.1,0.1c-0.1-0.3-0.1-3.1-0.1-3.9
	C3.1,48.3,3.2,47.4,3.5,47z"/>
</svg>
