<?xml version="1.0" encoding="utf-8"?>
<!-- Generator: Adobe Illustrator 21.0.2, SVG Export Plug-In . SVG Version: 6.00 Build 0)  -->
<svg version="1.1"
	 id="Capa_1" xmlns:cc="http://creativecommons.org/ns#" xmlns:dc="http://purl.org/dc/elements/1.1/" xmlns:inkscape="http://www.inkscape.org/namespaces/inkscape" xmlns:rdf="http://www.w3.org/1999/02/22-rdf-syntax-ns#" xmlns:sodipodi="http://sodipodi.sourceforge.net/DTD/sodipodi-0.dtd" xmlns:svg="http://www.w3.org/2000/svg"
	 xmlns="http://www.w3.org/2000/svg" xmlns:xlink="http://www.w3.org/1999/xlink" x="0px" y="0px" viewBox="0 0 94.9 91.2"
	 style="enable-background:new 0 0 94.9 91.2;" xml:space="preserve">
<style type="text/css">
	.st0{fill:#E52027;}
</style>
<g transform="translate(0,-952.36218)">
	<path class="st0" d="M26.2,1012.4c-3.7,0-20.6,3.4-20.6,3.4v20.7c0,0,25.6-3.8,29.8-4.3c7.1-0.9,19.2,3.3,21.5,2
		c8.3-4.8,27.9-17.8,27.9-17.8s1.6-0.6,1.4-2.2c-0.2-1.6-1.4-1.6-1.4-1.6s-10.6,4-20.3,7.5c-1,3.5-3.3,3.4-3.3,3.4H36.8v-0.7h24.3
		c0,0,2.2-0.5,2.2-2.8c0-0.7-0.2-1.2-0.5-1.6l0,0c-1,0.1-2.1,0.2-3.1,0.2c-4.9,0.1-11.5-1.8-13.2-2.2
		C42.3,1015.5,30.6,1012.4,26.2,1012.4L26.2,1012.4z"/>
	<path class="st0" d="M59.7,958.3c-16.1,0-29.2,13.1-29.2,29.2c0,16.1,13.1,29.2,29.2,29.2s29.2-13.1,29.2-29.2
		C88.9,971.4,75.9,958.3,59.7,958.3z M59.7,959.7c6.5,0,12.4,2.3,17.2,6l-2.4-0.5l-1.4-0.5l-2,0.5l-1.2,0.9v0.7l-2,1.3l0.4,1.9
		l1.1-0.9l0.7,0.9l0.9,0.5l0.5-1.4l-0.3-0.9l0.3-0.6l1.2-1h0.5l-0.5,1.2v1.1c0.5-0.1,1-0.2,1.5-0.3l-1.4,1l-0.1,0.6l-1.6,1.3
		l-1.6-0.4v-1l-0.7,0.5l0.3,0.8H68l-0.6,1l-0.8,0.9l-1.4,0.3l0.9,0.8l0.2,0.9h-1l-1.4,0.7v2.1h0.6l0.6,0.6l1.3-0.6l0.5-1.3l1-0.6
		l0.2-0.5l1.6-0.4l0.8,1l1,0.5l-0.5,1.1l0.9-0.2l0.4-1.1l-1-1.2h0.4l1,0.8l0.2,1.2l0.9,1.1l0.2-1.6l0.5-0.2c0.5,0.5,0.9,1.2,1.4,1.8
		l1.6,0.1l0.9,0.6l-0.4,0.6l-0.9,0.9h-1.4l-1.8-0.6l-1,0.1l-0.7,0.8l-2-2l-1.3-0.4l-2,0.3l-1.8,0.5c-1,1.1-2,2.2-2.9,3.4l-1.2,2.7
		l0.5,0.6l-1,1.4l1,2.5c0.9,1,1.8,2,2.7,3l1.3-1.1l0.6,0.6l1.4-0.9l0.5,0.5h1.4l0.8,0.9l-0.5,1.6l1,1.1v2l0.7,1.4l-0.5,1.2
		c-0.1,0.9-0.1,1.7-0.1,2.6c0.4,1.2,0.9,2.4,1.3,3.6l0.3,1.9v1h0.7l1.1-0.7h1.4l2.1-2.3l-0.3-0.8l1.4-1.2l-1-1.1l1.2-1l1.2-0.7
		l0.5-0.6l-0.3-1.3v-3.3l1-2.1l1.1-1.3l1.3-3.1v-0.8c-0.6,0.1-1.2,0.1-1.8,0.2l1.2-1.3l1.7-1.2l1-1v-1.2c-0.2-0.4-0.4-0.8-0.6-1.2
		l-0.8,1l-0.6-0.7l-1-0.7v-1.6l1.1,1.2l1.2-0.2c0.5,0.5,1.1,1,1.6,1.6l0.5-0.7c0.2,1.3,0.3,2.7,0.3,4.1c0,15.3-12.4,27.7-27.7,27.7
		c-4.3,0-8.4-1-12-2.7c0.2-0.2,0.3-0.5,0.3-0.5l-0.2-0.6l0.8-0.8l0.3-0.8l1.4-0.5l1-2.6l-0.3-0.7l0.7-1.1l1.6-0.4l0.9-1.9l-0.2-2.4
		l1.3-1.8l0.2-1.8c-1.7-0.9-3.4-1.7-5.1-2.6l-0.9-1.7l-1.6-0.4l-0.8-2.2L45,990l-1.8-1.3l-1.9,1.6v0.3c-0.6-0.2-1.3-0.2-1.8-0.5
		l-0.4-1.2v-1.3l-1.3,0.1c0.1-0.8,0.2-1.7,0.3-2.5h-0.7l-0.7,1l-0.7,0.4l-1-0.6l-0.1-1.3l0.2-1.4l1.6-1.2h1.2l0.2-0.7l1.6,0.4
		l1.2,1.4l0.2-2.4l2-1.6l0.7-1.8l1.5-0.6l0.9-1.2l1.9-0.4l1-1.4h-2.8l1.8-0.8h1.2l1.8-0.6l0.2-0.7l-0.6-0.6l-0.7-0.2l0.2-0.7l-0.5-1
		l-1.2,0.5l0.2-1l-1.5-0.8l-1.1,2l0.1,0.7l-1.1,0.5l-0.7,1.6l-0.3-1.4l-2-0.8l-0.3-1.1l2.6-1.6l1.1-1l0.1-1.3l-0.6-0.3l-0.7-0.1
		c2.2-1.5,4.6-2.7,7.3-3.6C53.8,960.3,56.7,959.7,59.7,959.7L59.7,959.7z M51.1,961.1l-0.6,0.6l-1,0.1l-1,0.5l-0.5,0.2l-0.3,0.4
		l1.4,0.2l0.5-0.5l1-0.2c0.7-0.3,1.4-0.6,2.2-0.9l-0.4-0.7L51.1,961.1L51.1,961.1z M59.9,960.7l-3.1,0.3l-3.9,1.1l-0.7,0.7l2.4,1.7
		v1l-1,0.9l1.3,2.5l0.8-0.5l1-1.7c1.6-0.5,3.1-1.1,4.6-1.8l1.3-3.2C62.6,961.8,59.9,960.7,59.9,960.7z M46.2,963.8l-0.2,0.5l0.1,1.2
		l-0.8,0.7l-0.5,1.3h1l0.5-1.2c0.5-0.3,0.9-0.7,1.3-1l1,0.4c0.7,0.5,1.4,0.9,2.1,1.4l1-1l-1.1-0.5l-0.5-1.1l-2-0.2l-0.1-0.6l-1,0.2
		l-0.4,0.9L46.2,963.8L46.2,963.8z M43.7,964.9l-0.5,1.2c0,0-0.9,0.1-1.3,0.1C42.5,965.7,43.1,965.3,43.7,964.9L43.7,964.9z
		 M76.9,965.8c0.2,0.2,0.5,0.4,0.7,0.6l-0.3,0.3l-1,1.2l-1.4-1.5h1.4L76.9,965.8z M62.7,966.3l-0.8,0.5l-0.5-0.1l-0.1,0.7l0.7,0.5
		l1.3-0.9L62.7,966.3L62.7,966.3z M48.9,966.5l-0.9,0.6l1,0.7h0.9V967L48.9,966.5z M65.4,969.3v0.7l0.4,0.5v1l-0.2,1.5l1.2-0.3
		l0.8-0.8l-0.7-0.7c-0.2-0.7-0.5-1.3-0.8-1.9H65.4L65.4,969.3z M65,970.7l-0.8,0.2l0.2,1.3l1-0.5L65,970.7z M50.5,972.8l0.3,1.6
		l0.6-0.9L50.5,972.8z M77.9,982.1l1.2,1.4l1.4,3l0.8,1l-0.4,1l0.8,0.9c-0.4,0-0.8,0-1.1,0c-0.7-1.4-1.2-2.8-1.7-4.3l-0.9-1
		l-0.5-1.7L77.9,982.1L77.9,982.1z M32.1,985.7c0.3,0.5,1,1.5,1,1.5l2.2,1.3l2.2,0.6l1,1.2l1.5,1.1l0.8-0.1l0.6,0.3v0.2l-0.8,2.2
		l-0.6,1l0.2,0.5l-0.5,1.8l1.9,3.5l1.9,1.6l0.8,1.2l-0.1,2.5l0.6,1.4l-0.6,2.7c0,0,0,0.1,0,0.2c-7.3-5-12-13.4-12-22.9
		C32,986.9,32.1,986.3,32.1,985.7L32.1,985.7z"/>
</g>
</svg>
